<svg width="6" height="10" viewBox="0 0 6 10" fill="none" xmlns="http://www.w3.org/2000/svg">
<path d="M4.75 9.625C4.58073 9.625 4.43099 9.56641 4.30078 9.44922L0.55078 5.69922C0.433593 5.56901 0.374999 5.41927 0.374999 5.25C0.374999 5.08073 0.433593 4.93099 0.55078 4.80078L4.30078 1.05078C4.43099 0.933595 4.58073 0.875001 4.75 0.875001C4.91927 0.875001 5.06901 0.933595 5.19922 1.05078C5.31641 1.18099 5.375 1.33073 5.375 1.5C5.375 1.66927 5.31641 1.81901 5.19922 1.94922L1.87891 5.25L5.19922 8.55078C5.3164 8.68099 5.375 8.83073 5.375 9C5.375 9.16927 5.3164 9.31901 5.19922 9.44922C5.06901 9.56641 4.91927 9.625 4.75 9.625Z" fill="white"/>
</svg>
